<svg width="16" height="16" viewBox="0 0 16 16" xmlns="http://www.w3.org/2000/svg">
    <path fill="#666666" d="M12.7 13.5l-2-2c-0.8 0.4-1.7 0.5-2.7 0.5-3.5 0-6.5-2.2-8-5 0.7-1.3 1.7-2.4 2.9-3.2L1.5 2.5l1-1 11.2 11.2-1 0.8zM8 4.5c0.3 0 0.5 0 0.8 0.1L7.1 3C4.9 3.5 3 5.1 2 7.2 3 9 4.8 10.5 7 11l-1.7-1.7C5.1 8.8 5 8.4 5 8c0-1.7 1.3-3 3-3zM8 5.5C6.6 5.5 5.5 6.6 5.5 8c0 0.2 0 0.4 0.1 0.5L8.5 11.4c1.2-0.2 2-1.2 2-2.4 0-1.9-1.1-3.5-2.5-3.5z"/>
    <path fill="#666666" d="M10.9 10.3L9.4 8.8c0-0.3 0.1-0.5 0.1-0.8 0-1.1-0.9-2-2-2-0.3 0-0.5 0.1-0.8 0.1L5.2 4.6C6 4.2 6.9 4 8 4c3.5 0 6.5 2.2 8 5-0.7 1.3-1.7 2.4-2.9 3.2l-2.2-1.9z"/>
</svg> 